# xmcd
# 
# Track frame offsets:
#     150
#     19683
#     40134
#     62327
#     80584
#     106110
#     128429
#     147100
#     165932
#     195682
# 
# Disc length: 3746
# 
# Revision: 2
# Processed by: cddbd v1.5.2PL0 Copyright (c) Steve Scherf et al.
# Submitted via: BonkEnc v1.0
# 
DISCID=6f0ea00a
DTITLE=Takashi Matsunaga - Inorganic Orange
DYEAR=2005
DGENRE=Jazz
TTITLE0=Inorganic Orange
TTITLE1=Dan Dan Dan
TTITLE2=A Child Is Born
TTITLE3=Onigashima
TTITLE4=Kobe
TTITLE5=C Jam Blues
TTITLE6=F-I-S-H-C-R-Y
TTITLE7=On Green Dolphin Street
TTITLE8=Sky De Sky
TTITLE9=CD-EXTRA
EXTD=YEAR: 2005
EXTT0=
EXTT1=
EXTT2=
EXTT3=
EXTT4=
EXTT5=
EXTT6=
EXTT7=
EXTT8=
EXTT9=
PLAYORDER=
